<mxfile host="app.diagrams.net" agent="Mozilla/5.0 (Windows NT 10.0; Win64; x64) AppleWebKit/537.36 (KHTML, like Gecko) Chrome/131.0.0.0 Safari/537.36" version="25.0.3">
  <diagram name="Página-1" id="_EGMAiW8_wWdpLvYkSdy">
    <mxGraphModel dx="1192" dy="413" grid="0" gridSize="10" guides="1" tooltips="1" connect="1" arrows="1" fold="1" page="0" pageScale="1" pageWidth="827" pageHeight="1169" math="0" shadow="0">
      <root>
        <mxCell id="0" />
        <mxCell id="1" parent="0" />
        <mxCell id="PZDcEjQfM8aiWEPz-nn0-12" value="" style="edgeStyle=none;curved=1;rounded=0;orthogonalLoop=1;jettySize=auto;html=1;fontSize=12;startSize=8;endSize=8;" parent="1" source="PZDcEjQfM8aiWEPz-nn0-1" target="PZDcEjQfM8aiWEPz-nn0-10" edge="1">
          <mxGeometry relative="1" as="geometry" />
        </mxCell>
        <mxCell id="PZDcEjQfM8aiWEPz-nn0-1" value="Escolha do tema&lt;div&gt;5 dias&lt;/div&gt;" style="rounded=0;whiteSpace=wrap;html=1;" parent="1" vertex="1">
          <mxGeometry x="150" y="80" width="120" height="60" as="geometry" />
        </mxCell>
        <mxCell id="PZDcEjQfM8aiWEPz-nn0-3" style="edgeStyle=none;curved=1;rounded=0;orthogonalLoop=1;jettySize=auto;html=1;fontSize=12;startSize=8;endSize=8;entryX=0;entryY=0.5;entryDx=0;entryDy=0;" parent="1" source="PZDcEjQfM8aiWEPz-nn0-2" target="PZDcEjQfM8aiWEPz-nn0-1" edge="1">
          <mxGeometry relative="1" as="geometry">
            <mxPoint x="93" y="110" as="targetPoint" />
          </mxGeometry>
        </mxCell>
        <mxCell id="PZDcEjQfM8aiWEPz-nn0-2" value="Inicio da Atividade extensionista I" style="ellipse;whiteSpace=wrap;html=1;" parent="1" vertex="1">
          <mxGeometry x="-48" y="70" width="120" height="80" as="geometry" />
        </mxCell>
        <mxCell id="iywwwTJyYuRjqeGjGOZg-6" value="" style="edgeStyle=orthogonalEdgeStyle;rounded=0;orthogonalLoop=1;jettySize=auto;html=1;" parent="1" source="PZDcEjQfM8aiWEPz-nn0-4" target="PZDcEjQfM8aiWEPz-nn0-6" edge="1">
          <mxGeometry relative="1" as="geometry" />
        </mxCell>
        <mxCell id="PZDcEjQfM8aiWEPz-nn0-4" value="Escrita da validação&lt;div&gt;12 dias&lt;/div&gt;" style="rounded=0;whiteSpace=wrap;html=1;" parent="1" vertex="1">
          <mxGeometry x="616" y="80" width="120" height="60" as="geometry" />
        </mxCell>
        <mxCell id="iywwwTJyYuRjqeGjGOZg-5" value="" style="edgeStyle=orthogonalEdgeStyle;rounded=0;orthogonalLoop=1;jettySize=auto;html=1;" parent="1" source="PZDcEjQfM8aiWEPz-nn0-6" target="iywwwTJyYuRjqeGjGOZg-4" edge="1">
          <mxGeometry relative="1" as="geometry" />
        </mxCell>
        <mxCell id="PZDcEjQfM8aiWEPz-nn0-6" value="Espera da validação&lt;div&gt;5 dias&lt;/div&gt;" style="rounded=0;whiteSpace=wrap;html=1;" parent="1" vertex="1">
          <mxGeometry x="616" y="229" width="120" height="60" as="geometry" />
        </mxCell>
        <mxCell id="PZDcEjQfM8aiWEPz-nn0-15" value="" style="edgeStyle=none;curved=1;rounded=0;orthogonalLoop=1;jettySize=auto;html=1;fontSize=12;startSize=8;endSize=8;" parent="1" source="PZDcEjQfM8aiWEPz-nn0-8" target="PZDcEjQfM8aiWEPz-nn0-14" edge="1">
          <mxGeometry relative="1" as="geometry" />
        </mxCell>
        <mxCell id="PZDcEjQfM8aiWEPz-nn0-8" value="Estudo dos resultados obtidos&lt;div&gt;3 dias&lt;/div&gt;" style="rounded=0;whiteSpace=wrap;html=1;" parent="1" vertex="1">
          <mxGeometry x="150" y="229" width="120" height="60" as="geometry" />
        </mxCell>
        <mxCell id="PZDcEjQfM8aiWEPz-nn0-13" value="" style="edgeStyle=none;curved=1;rounded=0;orthogonalLoop=1;jettySize=auto;html=1;fontSize=12;startSize=8;endSize=8;" parent="1" source="PZDcEjQfM8aiWEPz-nn0-10" target="PZDcEjQfM8aiWEPz-nn0-4" edge="1">
          <mxGeometry relative="1" as="geometry" />
        </mxCell>
        <mxCell id="PZDcEjQfM8aiWEPz-nn0-10" value="Escolha de funcionalidades básicas&lt;div&gt;12 dias&lt;/div&gt;" style="rounded=0;whiteSpace=wrap;html=1;" parent="1" vertex="1">
          <mxGeometry x="357" y="75.5" width="169" height="69" as="geometry" />
        </mxCell>
        <mxCell id="iywwwTJyYuRjqeGjGOZg-2" value="" style="edgeStyle=orthogonalEdgeStyle;rounded=0;orthogonalLoop=1;jettySize=auto;html=1;" parent="1" source="PZDcEjQfM8aiWEPz-nn0-14" target="iywwwTJyYuRjqeGjGOZg-1" edge="1">
          <mxGeometry relative="1" as="geometry" />
        </mxCell>
        <mxCell id="PZDcEjQfM8aiWEPz-nn0-14" value="Análise de todos os resultados e planejamentos&lt;div&gt;&lt;br&gt;&lt;/div&gt;&lt;div&gt;20 dias&lt;/div&gt;" style="rounded=0;whiteSpace=wrap;html=1;" parent="1" vertex="1">
          <mxGeometry x="-55" y="207" width="120" height="93" as="geometry" />
        </mxCell>
        <mxCell id="PZDcEjQfM8aiWEPz-nn0-16" value="&lt;div&gt;Fim da&lt;/div&gt;Atividade extensionistas I" style="ellipse;whiteSpace=wrap;html=1;" parent="1" vertex="1">
          <mxGeometry x="150" y="372" width="120" height="80" as="geometry" />
        </mxCell>
        <mxCell id="iywwwTJyYuRjqeGjGOZg-3" value="" style="edgeStyle=orthogonalEdgeStyle;rounded=0;orthogonalLoop=1;jettySize=auto;html=1;" parent="1" source="iywwwTJyYuRjqeGjGOZg-1" target="PZDcEjQfM8aiWEPz-nn0-16" edge="1">
          <mxGeometry relative="1" as="geometry" />
        </mxCell>
        <mxCell id="iywwwTJyYuRjqeGjGOZg-1" value="Escrita do trabalho final&lt;div&gt;12 dias&lt;/div&gt;" style="rounded=0;whiteSpace=wrap;html=1;" parent="1" vertex="1">
          <mxGeometry x="-55" y="382" width="120" height="60" as="geometry" />
        </mxCell>
        <mxCell id="iywwwTJyYuRjqeGjGOZg-7" value="" style="edgeStyle=orthogonalEdgeStyle;rounded=0;orthogonalLoop=1;jettySize=auto;html=1;" parent="1" source="iywwwTJyYuRjqeGjGOZg-4" target="PZDcEjQfM8aiWEPz-nn0-8" edge="1">
          <mxGeometry relative="1" as="geometry" />
        </mxCell>
        <mxCell id="iywwwTJyYuRjqeGjGOZg-4" value="Estudo de Usabilidade&lt;div&gt;5 dias&lt;/div&gt;" style="rounded=0;whiteSpace=wrap;html=1;" parent="1" vertex="1">
          <mxGeometry x="375" y="229" width="120" height="60" as="geometry" />
        </mxCell>
      </root>
    </mxGraphModel>
  </diagram>
</mxfile>
